<svg xmlns="http://www.w3.org/2000/svg" width="2405.488" height="875.156" viewBox="0 0 2405.488 875.156">
  <g id="CBT_Logo_-_Light_BG" data-name="CBT Logo - Light BG" transform="translate(-1862 -1974)">
    <g id="Group_136" data-name="Group 136" transform="translate(1862 1974)">
      <path id="Path_129" data-name="Path 129" d="M0,0H875.156V875.156H0Z" fill="#00994d"/>
      <path id="Path_129_-_Outline" data-name="Path 129 - Outline" d="M10.8,10.8V864.36H864.36V10.8H10.8M0,0H875.156V875.156H0Z" transform="translate(0 0)" fill="#0a6c3b"/>
      <path id="Path_128" data-name="Path 128" d="M135.3,387.022q-63.38,0-98.132-39.013T2.415,237.627q0-73.233,35.285-113.178T138.229,84.5A199.491,199.491,0,0,1,180.3,89.03q21.038,4.527,33.021,10.652l-13.581,37.549a207.86,207.86,0,0,0-31.956-9.72,142.684,142.684,0,0,0-30.625-3.861q-88.945,0-88.945,113.445,0,53.793,21.7,82.554t64.312,28.761q36.483,0,74.831-15.712v39.146Q179.772,387.022,135.3,387.022ZM410.845,85.036q57.521,0,89.344,39.28T532.013,235.5q0,71.9-32.089,111.714t-89.078,39.812q-28.494,0-52.062-10.519a97.908,97.908,0,0,1-39.546-32.356h-3.2L306.721,381.7h-31.69V-32.67h44.206V67.992q0,33.82-2.13,60.717h2.13Q350.128,85.036,410.845,85.036Zm-6.391,37.016q-45.271,0-65.244,25.964T319.237,235.5q0,61.516,20.505,88.013t65.777,26.5q40.744,0,60.717-29.693t19.973-85.35q0-56.989-19.973-84.95T404.454,122.052ZM700.239,350.539a144.406,144.406,0,0,0,22.636-1.731,146.519,146.519,0,0,0,17.31-3.6v33.82q-7.19,3.462-21.171,5.725a158.988,158.988,0,0,1-25.166,2.264q-84.684,0-84.684-89.211V124.182H567.354v-21.3L609.164,84.5,627.8,22.188H653.37V89.829h84.684v34.353H653.37V295.947q0,26.364,12.516,40.478T700.239,350.539Z" transform="translate(78.944 201.019)" fill="#fff"/>
    </g>
    <path id="Path_130" data-name="Path 130" d="M101.148,4.489q-30.08,0-47.491,20.032T36.246,79.376q0,35.821,16.787,55.354T100.9,154.262q19.1,0,43.559-6.865v18.6q-18.971,7.114-46.8,7.114-40.314,0-62.218-24.463t-21.9-69.52q0-28.207,10.547-49.425A75.717,75.717,0,0,1,54.531-3Q74.439-14.482,101.4-14.482,130.1-14.482,151.572-4l-8.986,18.222Q121.867,4.489,101.148,4.489Zm186.829,97.6q0,33.449-16.85,52.234t-46.555,18.784q-18.347,0-32.576-8.612a56.839,56.839,0,0,1-21.967-24.713q-7.738-16.1-7.738-37.693,0-33.449,16.725-52.109t46.43-18.659q28.707,0,45.619,19.1T287.977,102.091Zm-104.217,0q0,26.21,10.484,39.94t30.828,13.729q20.344,0,30.891-13.667t10.547-40q0-26.086-10.547-39.628t-31.14-13.542q-20.344,0-30.7,13.355T183.759,102.091Zm222.9,68.521V82.122q0-16.725-7.613-24.962t-23.839-8.238q-21.468,0-31.452,11.607t-9.985,38.317v71.767H313.05V33.82H329.9l3.37,18.722h1a42.3,42.3,0,0,1,17.848-15.664A57.99,57.99,0,0,1,377.7,31.323q24.713,0,37.194,11.919t12.481,38.13v89.24Zm81.987,0L436.724,33.82H458.94L488.4,114.947q9.985,28.457,11.732,36.944h1q1.373-6.615,8.674-27.4T542.564,33.82H564.78L512.859,170.613Zm144.642,2.5q-30.329,0-47.865-18.472t-17.536-51.3q0-33.075,16.288-52.546t43.746-19.471q25.711,0,40.689,16.912t14.977,44.62v13.105H589.354q.624,24.089,12.169,36.57t32.513,12.481a110.179,110.179,0,0,0,43.684-9.236v18.472a109.644,109.644,0,0,1-20.781,6.8A116.783,116.783,0,0,1,633.288,173.109ZM627.671,48.672q-16.475,0-26.273,10.734T589.853,89.111H661.37q0-19.6-8.737-30.017T627.671,48.672Zm142.4-17.349a81.071,81.071,0,0,1,16.35,1.5l-2.871,19.221a70.575,70.575,0,0,0-14.977-1.872q-16.6,0-28.395,13.48T728.38,97.224v73.389H707.661V33.82h17.1l2.371,25.337h1q7.614-13.355,18.347-20.594A41.3,41.3,0,0,1,770.067,31.323Zm142.645,2.5V46.925l-25.337,3a44.494,44.494,0,0,1,8.986,27.334q0,20.095-13.729,32.077T844.94,121.312a62.768,62.768,0,0,1-11.483-1q-13.23,6.989-13.23,17.6a8.94,8.94,0,0,0,4.618,8.3q4.618,2.683,15.851,2.683H864.91q22.216,0,34.136,9.361t11.919,27.209q0,22.716-18.222,34.635t-53.17,11.919q-26.834,0-41.375-9.985t-14.541-28.207a31.68,31.68,0,0,1,7.988-21.592q7.988-9.111,22.466-12.356a21.674,21.674,0,0,1-8.8-7.364,19.487,19.487,0,0,1-3.557-11.607,22.029,22.029,0,0,1,3.994-13.105q3.994-5.617,12.606-10.859a36.95,36.95,0,0,1-17.286-14.853,43.644,43.644,0,0,1-6.677-23.964q0-22.466,13.48-34.635t38.192-12.169a69.45,69.45,0,0,1,19.346,2.5ZM803.627,193.578q0,11.108,9.361,16.85t26.834,5.741q26.086,0,38.629-7.8T891,187.213q0-11.108-6.865-15.414t-25.836-4.306H833.457q-14.1,0-21.967,6.74T803.627,193.578ZM814.86,77.628q0,14.353,8.113,21.717t22.591,7.364q30.329,0,30.329-29.455,0-30.828-30.7-30.828-14.6,0-22.466,7.863T814.86,77.628Zm172.475,95.481q-30.329,0-47.865-18.472t-17.536-51.3q0-33.075,16.288-52.546t43.746-19.471q25.711,0,40.689,16.912t14.977,44.62v13.105H943.4q.624,24.089,12.169,36.57t32.513,12.481a110.179,110.179,0,0,0,43.684-9.236v18.472a109.641,109.641,0,0,1-20.781,6.8A116.783,116.783,0,0,1,987.335,173.109ZM981.719,48.672q-16.475,0-26.273,10.734T943.9,89.111h71.517q0-19.6-8.737-30.017T981.719,48.672Zm173.6,121.941V82.122q0-16.725-7.614-24.962t-23.839-8.238q-21.467,0-31.452,11.607t-9.985,38.317v71.767h-20.719V33.82h16.849l3.37,18.722h1a42.3,42.3,0,0,1,17.848-15.664,57.99,57.99,0,0,1,25.586-5.554q24.712,0,37.194,11.919t12.481,38.13v89.24Zm96.216-14.6a67.681,67.681,0,0,0,10.609-.811,68.676,68.676,0,0,0,8.113-1.685v15.851a37.876,37.876,0,0,1-9.923,2.683,74.511,74.511,0,0,1-11.795,1.061q-39.69,0-39.69-41.812V49.92h-19.6V39.935l19.6-8.612,8.737-29.206h11.982v31.7h39.69v16.1h-39.69v80.5q0,12.356,5.866,18.971T1251.533,156.01ZM23.016,282.094H74.563q36.32,0,52.546,10.859t16.225,34.323q0,16.226-9.049,26.772t-26.4,13.667v1.248q41.562,7.114,41.562,43.684,0,24.463-16.538,38.192T86.67,464.568H23.016Zm21.218,78.132H79.181q22.466,0,32.326-7.052t9.86-23.777q0-15.352-10.983-22.154t-34.947-6.8h-31.2Zm0,17.973v68.272H82.3q22.092,0,33.262-8.55t11.171-26.772q0-16.974-11.42-24.962T80.554,378.2Zm149.51-50.424v88.741q0,16.725,7.614,24.962t23.839,8.238q21.468,0,31.39-11.732t9.923-38.317V327.775h20.719V464.568h-17.1l-3-18.347H266.01A41.3,41.3,0,0,1,248.349,461.7a59.359,59.359,0,0,1-25.774,5.367q-24.962,0-37.381-11.857t-12.419-37.943v-89.49ZM408.156,427.25q0,19.1-14.228,29.455t-39.94,10.359q-27.209,0-42.436-8.612V439.232a102.623,102.623,0,0,0,21.156,7.863,88.34,88.34,0,0,0,21.78,2.871q16.225,0,24.962-5.18T388.186,429q0-7.988-6.927-13.667t-27.022-13.417q-19.1-7.114-27.146-12.419a37.082,37.082,0,0,1-11.982-12.044,31.41,31.41,0,0,1-3.932-16.1q0-16.725,13.6-26.4t37.319-9.673a109.191,109.191,0,0,1,43.185,8.986l-7.364,16.85q-20.594-8.487-37.319-8.487-14.728,0-22.216,4.618T330.9,359.977a15.505,15.505,0,0,0,2.808,9.361q2.808,3.869,9.049,7.364t23.964,10.11q24.338,8.862,32.888,17.848T408.156,427.25Zm43.171,37.319H430.608V327.775h20.719ZM428.861,290.706q0-7.114,3.495-10.422a12.937,12.937,0,0,1,17.349.062q3.619,3.37,3.62,10.359t-3.62,10.422a12.677,12.677,0,0,1-17.349,0Q428.861,297.7,428.861,290.706ZM577.622,464.568V376.077q0-16.725-7.613-24.962t-23.839-8.238q-21.467,0-31.452,11.608T504.732,392.8v71.767H484.013V327.775h16.85l3.37,18.722h1a42.305,42.305,0,0,1,17.848-15.664,57.99,57.99,0,0,1,25.586-5.554q24.713,0,37.194,11.919t12.481,38.13v89.24Zm109.82,2.5q-30.329,0-47.865-18.472t-17.536-51.3q0-33.075,16.288-52.546t43.746-19.471q25.711,0,40.688,16.912t14.977,44.62v13.105H643.508q.624,24.089,12.169,36.57t32.513,12.481a110.179,110.179,0,0,0,43.684-9.236V458.2a109.637,109.637,0,0,1-20.781,6.8A116.784,116.784,0,0,1,687.442,467.065Zm-5.617-124.437q-16.475,0-26.273,10.734t-11.545,29.705h71.517q0-19.6-8.737-30.017T681.825,342.628ZM850.057,427.25q0,19.1-14.228,29.455t-39.94,10.359q-27.209,0-42.436-8.612V439.232a102.625,102.625,0,0,0,21.155,7.863,88.341,88.341,0,0,0,21.78,2.871q16.225,0,24.962-5.18T830.087,429q0-7.988-6.927-13.667t-27.022-13.417q-19.1-7.114-27.147-12.419A37.082,37.082,0,0,1,757.01,377.45a31.409,31.409,0,0,1-3.932-16.1q0-16.725,13.6-26.4T804,325.279a109.191,109.191,0,0,1,43.185,8.986l-7.364,16.85q-20.594-8.487-37.319-8.487-14.728,0-22.216,4.618T772.8,359.977a15.505,15.505,0,0,0,2.808,9.361q2.808,3.869,9.049,7.364t23.964,10.11q24.338,8.862,32.888,17.848T850.057,427.25Zm110.694,0q0,19.1-14.229,29.455t-39.94,10.359q-27.209,0-42.436-8.612V439.232a102.624,102.624,0,0,0,21.156,7.863,88.34,88.34,0,0,0,21.779,2.871q16.226,0,24.962-5.18T940.781,429q0-7.988-6.927-13.667t-27.022-13.417q-19.1-7.114-27.146-12.419A37.082,37.082,0,0,1,867.7,377.45a31.41,31.41,0,0,1-3.932-16.1q0-16.725,13.6-26.4t37.319-9.673a109.191,109.191,0,0,1,43.185,8.986l-7.364,16.85q-20.594-8.487-37.319-8.487-14.728,0-22.216,4.618t-7.489,12.731a15.506,15.506,0,0,0,2.808,9.361q2.808,3.869,9.049,7.364t23.964,10.11q24.338,8.862,32.888,17.848T960.751,427.25ZM79.181,758.524H57.963V594.9H.176V576.05H136.969V594.9H79.181Zm128.666,2.5q-30.329,0-47.865-18.472t-17.536-51.3q0-33.075,16.288-52.546t43.746-19.471q25.711,0,40.688,16.912t14.977,44.62v13.105H163.914q.624,24.089,12.169,36.57T208.6,742.923a110.18,110.18,0,0,0,43.684-9.236v18.472a109.653,109.653,0,0,1-20.781,6.8A116.789,116.789,0,0,1,207.848,761.02Zm-5.617-124.437q-16.475,0-26.273,10.734t-11.545,29.705H235.93q0-19.6-8.737-30.017T202.231,636.583ZM336.889,761.02q-29.705,0-45.993-18.285T274.608,691q0-34.323,16.538-53.045t47.116-18.722a93.5,93.5,0,0,1,19.72,2.122,64.964,64.964,0,0,1,15.477,4.992l-6.365,17.6a97.424,97.424,0,0,0-14.977-4.556,66.874,66.874,0,0,0-14.353-1.81q-41.687,0-41.687,53.17,0,25.212,10.172,38.691t30.142,13.48a92.158,92.158,0,0,0,35.072-7.364v18.347Q357.732,761.02,336.889,761.02Zm149.385-2.5V670.033q0-16.725-7.613-24.962t-23.839-8.238q-21.592,0-31.515,11.732t-9.922,38.442v71.517H392.665V564.318h20.719V623.1a128.089,128.089,0,0,1-1,17.6h1.248a42.256,42.256,0,0,1,17.411-15.539,56.6,56.6,0,0,1,25.774-5.679q25.087,0,37.631,11.919t12.544,37.88v89.24Zm145.641,0V670.033q0-16.725-7.613-24.962t-23.839-8.238q-21.467,0-31.452,11.607t-9.985,38.317v71.766H538.306V621.731h16.85l3.37,18.722h1a42.3,42.3,0,0,1,17.848-15.664,57.99,57.99,0,0,1,25.586-5.554q24.713,0,37.194,11.919t12.481,38.13v89.24ZM802.019,690q0,33.45-16.849,52.234T738.615,761.02q-18.347,0-32.576-8.612A56.838,56.838,0,0,1,684.072,727.7q-7.738-16.1-7.738-37.693,0-33.449,16.725-52.109t46.43-18.659q28.707,0,45.619,19.1T802.019,690ZM697.8,690q0,26.21,10.484,39.94t30.828,13.729q20.344,0,30.891-13.667t10.547-40q0-26.085-10.547-39.628t-31.14-13.542q-20.344,0-30.7,13.355T697.8,690ZM847.81,758.524H827.092V564.318H847.81ZM998.568,690q0,33.45-16.849,52.234T935.164,761.02q-18.347,0-32.576-8.612A56.838,56.838,0,0,1,880.622,727.7q-7.738-16.1-7.738-37.693,0-33.449,16.725-52.109t46.43-18.659q28.707,0,45.619,19.1T998.568,690Zm-104.217,0q0,26.21,10.484,39.94t30.828,13.729q20.344,0,30.891-13.667T977.1,690q0-26.085-10.547-39.628t-31.14-13.542q-20.344,0-30.7,13.355T894.351,690ZM1135.6,621.731v13.105l-25.337,3a44.5,44.5,0,0,1,8.986,27.334q0,20.095-13.729,32.076t-37.693,11.982a62.767,62.767,0,0,1-11.483-1q-13.23,6.989-13.23,17.6a8.94,8.94,0,0,0,4.618,8.3q4.618,2.683,15.851,2.683h24.213q22.217,0,34.136,9.361t11.919,27.209q0,22.716-18.223,34.635t-53.17,11.92q-26.835,0-41.375-9.985t-14.54-28.207a31.68,31.68,0,0,1,7.988-21.592q7.988-9.111,22.466-12.356a21.673,21.673,0,0,1-8.8-7.364,19.487,19.487,0,0,1-3.557-11.607,22.029,22.029,0,0,1,3.994-13.105q3.994-5.617,12.606-10.859A36.95,36.95,0,0,1,1023.954,690a43.644,43.644,0,0,1-6.677-23.964q0-22.466,13.48-34.635t38.192-12.169a69.451,69.451,0,0,1,19.346,2.5ZM1026.512,781.489q0,11.108,9.361,16.849t26.834,5.741q26.086,0,38.629-7.8t12.544-21.156q0-11.108-6.865-15.414T1081.18,755.4h-24.837q-14.1,0-21.967,6.74T1026.512,781.489Zm11.233-115.95q0,14.353,8.113,21.717t22.591,7.364q30.329,0,30.329-29.456,0-30.828-30.7-30.828-14.6,0-22.466,7.863T1037.745,665.54Zm135.406,92.984h-20.719V621.731h20.719Zm-22.466-173.862q0-7.114,3.495-10.422a12.937,12.937,0,0,1,17.349.062q3.62,3.37,3.62,10.359t-3.62,10.422a12.677,12.677,0,0,1-17.349,0Q1150.686,591.651,1150.686,584.662Zm112.94,176.358q-30.329,0-47.865-18.472t-17.536-51.3q0-33.075,16.288-52.546t43.746-19.471q25.711,0,40.688,16.912t14.977,44.62v13.105h-94.232q.624,24.089,12.169,36.57t32.513,12.481a110.179,110.179,0,0,0,43.684-9.236v18.472a109.649,109.649,0,0,1-20.781,6.8A116.788,116.788,0,0,1,1263.626,761.02Zm-5.616-124.437q-16.475,0-26.273,10.734t-11.545,29.705h71.517q0-19.6-8.737-30.017T1258.009,636.583Zm168.232,84.622q0,19.1-14.229,29.456t-39.94,10.359q-27.209,0-42.436-8.612V733.187a102.623,102.623,0,0,0,21.155,7.863,88.345,88.345,0,0,0,21.78,2.871q16.226,0,24.962-5.18t8.737-15.789q0-7.988-6.927-13.667t-27.022-13.417q-19.1-7.114-27.146-12.419a37.081,37.081,0,0,1-11.982-12.044,31.409,31.409,0,0,1-3.932-16.1q0-16.725,13.6-26.4t37.319-9.673a109.191,109.191,0,0,1,43.185,8.986l-7.364,16.849q-20.594-8.487-37.318-8.487-14.728,0-22.217,4.618t-7.489,12.731a15.507,15.507,0,0,0,2.808,9.361q2.808,3.869,9.049,7.364t23.964,10.11q24.338,8.862,32.888,17.848T1426.241,721.206Z" transform="translate(2841.247 2006.475)" fill="#00994d"/>
  </g>
</svg>
