<svg id="CBT_Logo_-_Small" data-name="CBT Logo - Small" xmlns="http://www.w3.org/2000/svg" width="875.155" height="875.156" viewBox="0 0 875.155 875.156">
  <path id="Path_129" data-name="Path 129" d="M0,0H875.156V875.156H0Z" fill="#00994d"/>
  <path id="Path_129_-_Outline" data-name="Path 129 - Outline" d="M10.8,10.8V864.36H864.36V10.8H10.8M0,0H875.156V875.156H0Z" transform="translate(0 0)" fill="#0a6c3b"/>
  <path id="Path_128" data-name="Path 128" d="M135.3,387.022q-63.38,0-98.132-39.013T2.415,237.627q0-73.233,35.285-113.178T138.229,84.5A199.491,199.491,0,0,1,180.3,89.03q21.038,4.527,33.021,10.652l-13.581,37.549a207.86,207.86,0,0,0-31.956-9.72,142.684,142.684,0,0,0-30.625-3.861q-88.945,0-88.945,113.445,0,53.793,21.7,82.554t64.312,28.761q36.483,0,74.831-15.712v39.146Q179.772,387.022,135.3,387.022ZM410.845,85.036q57.521,0,89.344,39.28T532.013,235.5q0,71.9-32.089,111.714t-89.078,39.812q-28.494,0-52.062-10.519a97.908,97.908,0,0,1-39.546-32.356h-3.2L306.721,381.7h-31.69V-32.67h44.206V67.992q0,33.82-2.13,60.717h2.13Q350.128,85.036,410.845,85.036Zm-6.391,37.016q-45.271,0-65.244,25.964T319.237,235.5q0,61.516,20.505,88.013t65.777,26.5q40.744,0,60.717-29.693t19.973-85.35q0-56.989-19.973-84.95T404.454,122.052ZM700.239,350.539a144.406,144.406,0,0,0,22.636-1.731,146.519,146.519,0,0,0,17.31-3.6v33.82q-7.19,3.462-21.171,5.725a158.988,158.988,0,0,1-25.166,2.264q-84.684,0-84.684-89.211V124.182H567.354v-21.3L609.164,84.5,627.8,22.188H653.37V89.829h84.684v34.353H653.37V295.947q0,26.364,12.516,40.478T700.239,350.539Z" transform="translate(78.944 201.019)" fill="#fff"/>
</svg>
