<svg width="1164" height="320" viewBox="0 0 1164 320" fill="none" xmlns="http://www.w3.org/2000/svg">
<path d="M0 0H320V320H0V0Z" fill="#00994D"/>
<path d="M574.72 159.43H629.48V264.51C615.42 275.117 599.14 283.257 580.64 288.93C562.14 294.603 543.517 297.44 524.77 297.44C497.883 297.44 473.71 291.767 452.25 280.42C430.79 268.827 413.893 252.917 401.56 232.69C389.473 212.217 383.43 189.153 383.43 163.5C383.43 137.847 389.473 114.907 401.56 94.68C413.893 74.2067 430.913 58.2967 452.62 46.95C474.327 35.3567 498.747 29.56 525.88 29.56C548.573 29.56 569.17 33.3833 587.67 41.03C606.17 48.6767 621.71 59.7767 634.29 74.33L595.81 109.85C577.31 90.3633 554.987 80.62 528.84 80.62C512.313 80.62 497.637 84.0733 484.81 90.98C471.983 97.8867 461.993 107.63 454.84 120.21C447.687 132.79 444.11 147.22 444.11 163.5C444.11 179.533 447.687 193.84 454.84 206.42C461.993 219 471.86 228.867 484.44 236.02C497.267 242.927 511.82 246.38 528.1 246.38C545.367 246.38 560.907 242.68 574.72 235.28V159.43Z" fill="white"/>
<path d="M840.929 237.5H720.679L697.739 293H636.319L751.759 34H810.959L926.769 293H863.869L840.929 237.5ZM822.059 191.99L780.989 92.83L739.919 191.99H822.059Z" fill="white"/>
<path d="M1050.95 34C1073.89 34 1093.75 37.8233 1110.52 45.47C1127.54 53.1167 1140.61 63.97 1149.74 78.03C1158.87 92.09 1163.43 108.74 1163.43 127.98C1163.43 146.973 1158.87 163.623 1149.74 177.93C1140.61 191.99 1127.54 202.843 1110.52 210.49C1093.75 217.89 1073.89 221.59 1050.95 221.59H998.781V293H938.841V34H1050.95ZM1047.62 172.75C1065.63 172.75 1079.32 168.927 1088.69 161.28C1098.06 153.387 1102.75 142.287 1102.75 127.98C1102.75 113.427 1098.06 102.327 1088.69 94.68C1079.32 86.7867 1065.63 82.84 1047.62 82.84H998.781V172.75H1047.62Z" fill="white"/>
<path d="M173.14 260.22C153.16 260.22 135.277 255.903 119.49 247.27C103.95 238.637 91.74 226.797 82.86 211.75C73.98 196.457 69.54 179.19 69.54 159.95C69.54 140.71 73.98 123.567 82.86 108.52C91.74 93.2267 103.95 81.3867 119.49 73C135.277 64.3667 153.16 60.05 173.14 60.05C190.9 60.05 206.687 63.6267 220.5 70.78C234.56 77.9333 245.413 88.2933 253.06 101.86L226.05 119.25C219.883 109.877 212.237 102.847 203.11 98.16C193.983 93.4733 183.87 91.13 172.77 91.13C159.943 91.13 148.35 93.9667 137.99 99.64C127.877 105.313 119.86 113.453 113.94 124.06C108.267 134.42 105.43 146.383 105.43 159.95C105.43 173.763 108.267 185.973 113.94 196.58C119.86 206.94 127.877 214.957 137.99 220.63C148.35 226.303 159.943 229.14 172.77 229.14C183.87 229.14 193.983 226.797 203.11 222.11C212.237 217.423 219.883 210.393 226.05 201.02L253.06 218.04C245.413 231.607 234.56 242.09 220.5 249.49C206.687 256.643 190.9 260.22 173.14 260.22Z" fill="white"/>
</svg>
