<svg id="Vector_-_LIGHT_BG" data-name="Vector - LIGHT BG" xmlns="http://www.w3.org/2000/svg" width="1163.43" height="320" viewBox="0 0 1163.43 320">
  <path id="Path_3" data-name="Path 3" d="M0,0H320V320H0Z" fill="#00994d"/>
  <path id="Path_4" data-name="Path 4" d="M574.72,159.43h54.76V264.51a156.437,156.437,0,0,1-48.84,24.42,189.625,189.625,0,0,1-55.87,8.51q-40.331,0-72.52-17.02a131.174,131.174,0,0,1-50.69-47.73q-18.131-30.71-18.13-69.19t18.13-68.82a127.051,127.051,0,0,1,51.06-47.73q32.561-17.39,73.26-17.39,34.039,0,61.79,11.47a122.434,122.434,0,0,1,46.62,33.3l-38.48,35.52q-27.75-29.23-66.97-29.23-24.791,0-44.03,10.36a74.319,74.319,0,0,0-29.97,29.23q-10.729,18.87-10.73,43.29,0,24.05,10.73,42.92a77.545,77.545,0,0,0,29.6,29.6q19.24,10.36,43.66,10.36,25.9,0,46.62-11.1Z" fill="#4a4a4a"/>
  <path id="Path_5" data-name="Path 5" d="M840.929,237.5H720.679L697.739,293h-61.42L751.759,34h59.2l115.81,259h-62.9Zm-18.87-45.51-41.07-99.16-41.07,99.16Z" fill="#4a4a4a"/>
  <path id="Path_6" data-name="Path 6" d="M1050.95,34q34.41,0,59.57,11.47,25.53,11.47,39.22,32.56t13.69,49.95q0,28.49-13.69,49.95-13.7,21.09-39.22,32.56-25.155,11.1-59.57,11.1H998.781V293h-59.94V34Zm-3.33,138.75q27.015,0,41.07-11.47,14.055-11.84,14.06-33.3,0-21.83-14.06-33.3-14.055-11.84-41.07-11.84H998.781v89.91Z" fill="#4a4a4a"/>
  <path id="Path_7" data-name="Path 7" d="M173.14,260.22q-29.97,0-53.65-12.95a95.64,95.64,0,0,1-36.63-35.52q-13.32-22.939-13.32-51.8t13.32-51.43A92.247,92.247,0,0,1,119.49,73q23.68-12.95,53.65-12.95,26.64,0,47.36,10.73a76.185,76.185,0,0,1,32.56,31.08l-27.01,17.39a60.347,60.347,0,0,0-22.94-21.09,65.432,65.432,0,0,0-30.34-7.03,71.2,71.2,0,0,0-34.78,8.51,61.914,61.914,0,0,0-24.05,24.42q-8.51,15.54-8.51,35.89,0,20.72,8.51,36.63a62.584,62.584,0,0,0,24.05,24.05,71.206,71.206,0,0,0,34.78,8.51,65.428,65.428,0,0,0,30.34-7.03,60.347,60.347,0,0,0,22.94-21.09l27.01,17.02a78.493,78.493,0,0,1-32.56,31.45Q199.78,260.22,173.14,260.22Z" fill="#fff"/>
</svg>
